<svg xmlns="http://www.w3.org/2000/svg" xmlns:xlink="http://www.w3.org/1999/xlink" width="285" height="102" viewBox="0 0 285 102">
    <defs>
        <path id="a" d="M.222.293h123.542v98.719H.222z"/>
    </defs>
    <g fill="none" fill-rule="evenodd">
        <g transform="translate(160.785 .813)">
            <mask id="b" fill="#fff">
                <use xlink:href="#a"/>
            </mask>
            <path fill="#FFF" d="M123.764 98.92V.293H.222l43.342 98.719h16.54l63.66-.092zM44.337 81.406l7.366.032 28.046-65.921-9.205-.025-22.387 54.143c-.747-.914-10.146-24.082-11.369-27.121-1.809-4.5-3.733-9.103-5.589-13.555l-4.201-10.154c-1.793-4.265.345-3.313-10.728-3.307l28.067 65.908zm68.08-8.796l-5.26-4.73c-2.012 1.82-4.09 4.046-7.537 5.39-10.99 4.285-22.232-1.536-23.35-13.439l33.983.002c3.797.01 3.62.803 3.591-2.957-.029-4.021-.597-7.967-2.006-11.44-2.548-6.275-6.895-11.118-13.833-13.192-14.508-4.336-28.974 5.657-30.16 22.118-.751 10.445 3.421 18.454 10.434 23.506 7.29 5.252 18.921 5.64 26.674 1.017 3.172-1.891 5.579-3.9 7.464-6.275zM76.303 53.384l29.036.028c.011-6.812-5.358-15.07-14.514-14.943-8.49.116-14.275 7.924-14.522 14.915z" mask="url(#b)"/>
        </g>
        <path fill="#FFF" d="M140.776 39.881c8.787.853 27.546-3.94 27.585 11.894l-.113 1.274c-12.367-3.256-33.448-3.59-34.714 12.889-1.158 15.087 16.267 20.115 28.036 14.858 3.17-1.417 4.679-3.26 6.758-4.832l.037 5.686 8.022.024c-.003-7.074-.002-14.124-.002-21.173 0-11.1 1.14-24.326-14.667-27.47-3.42-.68-17.432-.946-20.942-.435v7.285zm-22.59 3.308V33.126c-1.98 0-6.67-.277-8.302.177v48.38l8.16.075c.538-2.42.141-11.661.141-14.783 0-8.091.079-17.163 7.558-22.562 1.42-1.025 3.038-1.884 5.09-2.51 2.637-.804 4.086-.522 6.706-.843v-8.69c-4.477-.545-8.927 1.032-11.891 2.943-1.843 1.188-2.738 2.157-4.065 3.537l-2.484 3.13c-.17.256-.137.236-.345.52l-.569.69zM.521 47.482v4.485c.947 2.179 1.208 22.07 21.909 29.13 10.401 3.548 21.686 1.928 30.633-4.083 3.7-2.487 4.85-4.364 6.87-5.783-.352-.689-1.961-2.293-2.657-3.023-.915-.962-1.837-1.686-2.605-2.693-.913.412-2.233 1.633-2.94 2.287-7.154 6.62-17.167 9.149-26.68 5.61-8.71-3.242-15.562-12.12-15.718-24.165-.25-19.232 16.885-30.11 32.393-24.885 7.303 2.46 10.046 6.54 12.382 7.777 1.462-2.28 4.065-4.057 5.456-6.244-3.44-3.473-9.171-7.864-16.03-9.538-7.185-1.753-15.596-1.528-22.167 1.093-6.492 2.588-10.37 5.91-14.425 11.19C.72 36.741 1.133 45.83.523 47.481zm104.414 26.052c-.654-1.265-3.725-3.374-4.959-4.886-1.68.646-7.658 9.156-19.159 6.411-6.454-1.538-11.269-7.024-12.035-14.418l37.386-.003c1.365-5.31-1.403-14.521-3.663-18.246-2.555-4.212-6.786-8.112-12.913-9.585C75.6 29.445 65.083 38.061 61.75 48.26c-2.04 6.241-1.995 13.37.377 19.321 4.797 12.038 16.81 17.439 29.048 14.6 6.853-1.59 10.122-5.097 13.761-8.647zM68.872 54.238H97.85c.12-4.169-2.267-8.025-4.067-10.434-4.035-5.403-14.545-6.577-20.452-.005-1.813 2.018-4.62 6.392-4.46 10.44zm99.562 5.294c-6.071-1.094-21.856-4.926-25.832 4-1.4 3.145-.694 6.58 1.077 8.636 4.91 5.691 17.841 5.293 23.131-2.732 1.83-2.776 1.624-6.174 1.624-9.904zM5.88 97.114v3.067H4.847v-6.806h1.968l.285.011c.253.022.506.066.749.144.242.076.45.22.615.418.133.153.231.33.309.538.065.21.109.418.12.627v.11c0 .12-.011.253-.022.374-.021.12-.054.242-.089.362-.163.528-.46.858-.878.98-.43.131-.88.198-1.353.198l-.165-.012h-.164l-.177-.01H5.88zm.066-2.782v1.891h.11l.1.011h.12l.121.011h.132l.132-.01c.264-.012.506-.077.737-.198.23-.11.351-.33.373-.65v-.142c0-.363-.12-.604-.362-.726a2.215 2.215 0 0 0-.814-.187h-.649zm8.058 5.85l-.77-1.76H10.55l-.793 1.76H8.605l3.277-7.07 3.298 7.07h-1.176zm-2.353-4.223l-.693 1.55h1.89l-.703-1.55a2.318 2.318 0 0 1-.132-.384c-.033-.132-.077-.265-.11-.396l-.021.076-.022.079c-.034.109-.056.218-.089.318l-.12.307zm8.319 3.915c-.187.12-.43.231-.737.32a4.083 4.083 0 0 1-.98.121h-.196l-.21-.023a2.722 2.722 0 0 1-1.034-.342c-.34-.174-.604-.45-.802-.834l.693-.715c.131.297.33.528.593.704.254.176.529.286.825.318h.1l.087.012c.33 0 .637-.1.924-.31.286-.196.462-.493.516-.9l-.01-.022c0-.451-.144-.747-.44-.891a2.358 2.358 0 0 0-.968-.23h-.803v-.837h.352l.177.013h.164c.33 0 .627-.056.891-.178.252-.109.385-.373.396-.802 0-.362-.11-.627-.32-.792a1.171 1.171 0 0 0-.736-.252l-.176.01-.176.034c-.22.054-.429.165-.616.307a1.489 1.489 0 0 0-.462.572l-.725-.605a1.69 1.69 0 0 1 .792-.846 3.01 3.01 0 0 1 1.187-.352l.121-.011h.253l.12.011c.176.01.352.044.518.087.165.056.318.11.451.188.209.132.385.308.516.527.132.231.22.462.253.705l.033.163v.166c0 .296-.077.571-.22.824-.153.265-.395.451-.715.55.43.088.759.287.969.594.208.308.307.67.307 1.078v.241l-.022.078a1.86 1.86 0 0 1-.264.638 3.278 3.278 0 0 1-.44.538l-.088.067-.098.076zm3.327-2.76v3.067h-1.034v-6.806H24.232l.286.011c.252.022.505.066.747.144.242.076.451.22.616.418.133.153.23.33.308.538.067.21.11.418.12.627v.11c0 .12-.01.253-.021.374-.022.12-.055.242-.088.362-.164.528-.462.858-.88.98-.428.131-.88.198-1.352.198l-.165-.012h-.165l-.175-.01h-.166zm.066-2.782v1.891h.11l.099.011h.122l.12.011h.132l.132-.01a1.7 1.7 0 0 0 .736-.198c.231-.11.353-.33.375-.65v-.142c0-.363-.122-.604-.364-.726a2.21 2.21 0 0 0-.813-.187h-.649zm8.058 5.85l-.77-1.76h-2.683l-.792 1.76h-1.155l3.276-7.07 3.3 7.07H31.42zm-2.354-4.223l-.693 1.55h1.892l-.705-1.55a2.318 2.318 0 0 1-.131-.384c-.033-.132-.077-.265-.11-.396l-.023.076-.02.079c-.034.109-.056.218-.09.318l-.12.307zm4.58-2.584h3.795v.957h-2.695v1.891h.891c.12.011.231.011.352.022.153.013.308.034.45.056.143.033.265.065.374.1.32.164.584.406.782.724.197.32.318.659.362 1.013l.011.108v.134c0 .274-.055.549-.176.813-.121.263-.319.483-.572.649a1.593 1.593 0 0 1-.505.219 2.59 2.59 0 0 1-.583.1l-.308.01-.297.01h-1.88v-6.806zm3.2 4.774c0-.43-.142-.715-.417-.848a2.37 2.37 0 0 0-.935-.219h-.748v2.154h.122l.12.011H35.132l.11.011h.252c.342-.022.65-.098.936-.24.275-.133.417-.407.417-.837v-.032zm9.178 0a3.346 3.346 0 0 1-1.374 1.615 3.819 3.819 0 0 1-2.012.572h-.166l-.176-.021a5.419 5.419 0 0 1-.693-.122 3.512 3.512 0 0 1-2.067-1.606 3.505 3.505 0 0 1-.517-1.824l.022-.309.045-.307c.033-.176.077-.351.142-.54.067-.175.144-.34.221-.504a3.407 3.407 0 0 1 1.374-1.386 3.764 3.764 0 0 1 1.836-.485c.11 0 .221 0 .341.012.12.01.231.033.342.055.231.044.46.11.692.187.23.088.44.197.638.33.506.328.902.77 1.188 1.308.274.55.418 1.121.418 1.704 0 .23-.023.45-.067.672-.044.219-.11.439-.187.649zm-5.805-.87c.12.583.406 1.066.868 1.452.462.395.99.594 1.572.594.693 0 1.286-.253 1.76-.76.473-.506.715-1.1.715-1.77a2.5 2.5 0 0 0-.727-1.792c-.494-.505-1.077-.76-1.77-.76h-.23c-.649.067-1.177.353-1.606.87-.429.517-.638 1.09-.638 1.715l.011.11.011.11.011.055v.066l.023.056v.054zm10.33-2.947v5.85h-1.11v-5.85h-1.793v-.957h4.695v.957H50.55zm6.957 5.85l-.77-1.76h-2.683l-.791 1.76h-1.155l3.277-7.07 3.3 7.07h-1.178zm-2.353-4.223l-.693 1.55h1.892l-.704-1.55c-.055-.12-.1-.252-.132-.384-.034-.132-.077-.265-.11-.396l-.022.076-.022.079c-.033.109-.056.218-.089.318l-.12.307zm4.624 4.222v-6.806h1.111v2.508h3.353v-2.508h1.1v6.806h-1.1v-3.309H60.89v3.31h-1.11zm13.653-2.032a3.35 3.35 0 0 1-1.374 1.615 3.825 3.825 0 0 1-2.013.572h-.165l-.175-.021a5.419 5.419 0 0 1-.693-.122 3.509 3.509 0 0 1-2.067-1.606 3.495 3.495 0 0 1-.518-1.824l.023-.309.044-.307c.033-.176.076-.351.142-.54.067-.175.143-.34.22-.504a3.403 3.403 0 0 1 1.375-1.386 3.761 3.761 0 0 1 1.836-.485c.11 0 .22 0 .34.012.122.01.232.033.342.055.23.044.46.11.692.187.23.088.44.197.639.33.505.328.9.77 1.187 1.308.275.55.418 1.121.418 1.704 0 .23-.022.45-.067.672-.043.219-.11.439-.186.649zm-5.806-.87c.121.583.406 1.066.868 1.452.462.395.99.594 1.573.594.693 0 1.287-.253 1.76-.76.472-.506.715-1.1.715-1.77 0-.692-.243-1.286-.726-1.792-.496-.505-1.078-.76-1.771-.76h-.231c-.649.067-1.176.353-1.605.87-.43.517-.639 1.09-.639 1.715l.012.11.01.11.011.055v.066l.023.056v.054zm16.684-2.243a4.219 4.219 0 0 0-.99-.593 2.98 2.98 0 0 0-1.088-.2l-.265.012-.297.033c-.615.11-1.089.397-1.418.869a2.735 2.735 0 0 0-.54 1.518v.252c.035.494.189.968.485 1.407.286.44.704.738 1.242.902l.176.033.188.045.176.022.175.01c.396 0 .78-.088 1.144-.252a4.886 4.886 0 0 0 1.012-.627v1.253a3.49 3.49 0 0 1-.692.353 3.861 3.861 0 0 1-.749.208c-.121.01-.23.034-.352.044-.12.011-.231.011-.34.011-.87 0-1.672-.286-2.387-.847-.714-.56-1.122-1.351-1.22-2.352v-.178l-.011-.076v-.087c0-.902.296-1.693.89-2.376.594-.681 1.354-1.066 2.276-1.165l.067-.011h.054l.199-.012h.165c.384 0 .758.056 1.11.176.352.122.703.298 1.045.517l-.055 1.111zm10.614 6.356v-1.21h-4.695v1.21h-1.11V99.18h.241l.165-.065.132-.089.143-.12.044-.044c.21-.252.374-.627.495-1.132.11-.496.187-1.024.242-1.584.055-.561.1-1.089.11-1.595.011-.505.011-.88.011-1.133v-.033l4.476-.01v5.805h.856v2.21h-1.11zm-3.794-2.705l-.054.1-.155.23-.065.088-.077.076h3.299v-4.849h-2.255c-.044 1.133-.131 2.068-.263 2.815-.133.748-.275 1.265-.43 1.54zm6.131 1.494v-6.806h3.794v.957H98.36v1.682h2.694v.98H98.36v2.187h2.694v1H97.26zm6.254-3.067v3.067h-1.034v-6.806h1.969l.285.011c.253.022.506.066.748.144.242.076.451.22.616.418.131.153.23.33.308.538.065.21.11.418.12.627v.11c0 .12-.01.253-.022.374-.022.12-.055.242-.088.362-.165.528-.462.858-.879.98-.43.131-.88.198-1.353.198l-.165-.012h-.164l-.177-.01h-.164zm.066-2.782v1.891h.11l.098.011h.121l.122.011h.131l.133-.01c.263-.012.505-.077.736-.198.231-.11.352-.33.374-.65v-.142c0-.363-.12-.604-.363-.726a2.22 2.22 0 0 0-.814-.187H103.58zm9.002 2.485l-.044-.241-.033-.231-.011-.122-.011-.11v-.12l-.021-.11c-.033.165-.078.32-.133.483-.055.166-.12.32-.198.462l-1.758 3.608-1.782-3.673c-.055-.143-.11-.298-.166-.44-.055-.144-.12-.286-.175-.44l-.022.286-.034.285-.022.177-.032.197-.748 3.353h-1.011l1.604-7.092 2.013 4.3.11.22.088.23.044.11.044.121.044.11.045.11.098-.23.088-.22.11-.23.098-.22 1.936-4.301 1.661 7.092h-1.035l-.747-3.364zm7.812 3.364l-.769-1.758h-2.684l-.79 1.758h-1.156l3.277-7.069 3.3 7.07h-1.178zm-2.353-4.222l-.692 1.55h1.89l-.703-1.55c-.055-.12-.1-.252-.131-.384-.033-.132-.078-.265-.11-.396l-.023.076-.022.079c-.033.109-.054.218-.088.318l-.12.307zm7.484-1.627v5.85h-1.11v-5.85h-1.792v-.957h4.695v.957h-1.793zm8.793 3.817a3.352 3.352 0 0 1-1.375 1.615 3.822 3.822 0 0 1-2.011.572h-.166l-.176-.021a5.436 5.436 0 0 1-.692-.122 3.523 3.523 0 0 1-2.068-1.606 3.504 3.504 0 0 1-.516-1.824l.021-.309.045-.307c.033-.176.077-.351.143-.54.065-.175.143-.34.22-.504a3.417 3.417 0 0 1 1.374-1.386 3.765 3.765 0 0 1 1.837-.485c.11 0 .219 0 .34.012.122.01.231.033.34.055.232.044.463.11.694.187.23.088.44.197.638.33.506.328.901.77 1.188 1.308.274.55.418 1.121.418 1.704 0 .23-.023.45-.067.672-.044.219-.11.439-.187.649zm-5.806-.87c.122.583.407 1.066.87 1.452.461.395.988.594 1.572.594a2.32 2.32 0 0 0 1.758-.76c.474-.506.716-1.1.716-1.77 0-.692-.242-1.286-.725-1.792-.496-.505-1.078-.76-1.771-.76h-.231c-.649.067-1.177.353-1.606.87-.429.517-.638 1.09-.638 1.715l.011.11.011.11.011.055v.066l.022.056v.054zm9.726-2.947c-.022.253-.043.484-.054.704l-.067.627a19.783 19.783 0 0 1-.274 1.957c-.1.494-.243.945-.43 1.363-.098.264-.22.473-.362.639a1.879 1.879 0 0 1-.44.373 1.3 1.3 0 0 1-.407.154 1.67 1.67 0 0 1-.364.044h-.153l-.12-.022-.078-.01-.033-.012v-.945c.033 0 .121-.023.264-.055.144-.033.286-.144.44-.32l.066-.087.066-.088c.263-.364.45-.891.55-1.584.1-.68.175-1.572.242-2.66.01-.166.033-.33.044-.507.011-.164.011-.34.022-.528h4.398v6.806h-1.1v-5.849h-2.21zm11.397 3.817a3.332 3.332 0 0 1-1.374 1.615 3.819 3.819 0 0 1-2.011.572h-.165l-.177-.021a5.419 5.419 0 0 1-.693-.122 3.505 3.505 0 0 1-2.067-1.606 3.504 3.504 0 0 1-.516-1.824l.022-.309.043-.307c.034-.176.078-.351.144-.54.066-.175.143-.34.22-.504a3.407 3.407 0 0 1 1.374-1.386 3.768 3.768 0 0 1 1.837-.485c.11 0 .22 0 .34.012.12.01.231.033.342.055.23.044.462.11.693.187.23.088.439.197.636.33.507.328.902.77 1.189 1.308.274.55.417 1.121.417 1.704 0 .23-.022.45-.066.672-.044.219-.11.439-.188.649zm-5.805-.87c.12.583.407 1.066.87 1.452.461.395.988.594 1.572.594a2.32 2.32 0 0 0 1.758-.76c.473-.506.715-1.1.715-1.77 0-.692-.242-1.286-.725-1.792-.495-.505-1.077-.76-1.77-.76h-.231c-.649.067-1.176.353-1.606.87-.429.517-.638 1.09-.638 1.715l.011.11.011.11.011.055v.066l.022.056v.054zm7.472 2.902v-6.806h3.32v.957h-2.21v5.85h-1.11zm8.498 0l-.771-1.758h-2.682l-.792 1.758h-1.154l3.276-7.069 3.3 7.07H159.8zm-2.354-4.222l-.692 1.55h1.891l-.704-1.55c-.055-.12-.1-.252-.131-.384-.033-.132-.078-.265-.11-.396l-.023.076-.022.079c-.033.109-.054.218-.088.318l-.12.307zm10.386.858l-.044-.241-.032-.231-.011-.122-.011-.11v-.12l-.022-.11a3.686 3.686 0 0 1-.33.945l-1.76 3.608-1.78-3.673c-.056-.143-.111-.298-.166-.44-.055-.144-.121-.286-.176-.44l-.021.286-.034.285-.022.177-.033.197-.747 3.353h-1.012l1.606-7.092 2.011 4.3.11.22.088.23.044.11.044.121.045.11.044.11.098-.23.089-.22.11-.23.099-.22 1.935-4.301 1.661 7.092h-1.034l-.749-3.364zm2.997 3.63v-7.072h1.11v4.487l4.454-4.739v7.058h-1.1l-.021-4.42-4.443 4.686z"/>
    </g>
</svg>
